:SAMPLES-PER-SECOND 30
:FULLY-SPECIFIED
:DEGREES
594
root  -33.9149 32.4598 -13.2743 -169.98 -4.06631 98.6167
Spine  2.46853 10.4006 -23.0726
Spine1  3.41092 -4.90437 10.4212
Neck  3.97569e-016 0 -2.38542e-015
Head  46.368 -7.96316 31.14
R_Clavicle  0.436462 -24.6703 1.56138
R_UpperArm  44.8897 -5.46214 39.7823
R_Forearm  3.36017 -47.6411 38.549
R_Hand  -0.981705 14.0234 -19.4119
L_Clavicle  -0.662803 24.6935 0.615247
L_UpperArm  -21.4647 5.24424 25.1452
L_Forearm  21.8715 46.5225 51.5507
L_Hand  -0.021309 -1.43606 -0.70832
L_Thigh  -11.3908 -3.64361 6.38836
L_Calf  3.69284 -3.10253 22.8678
L_Foot  1.96229 3.08202 5.18082
L_Toe0  0.505156 0.0182556 -6.13624
R_Thigh  12.9863 8.23188 -22.2357
R_Calf  3.10189 9.60557 31.7387
R_Foot  -2.91496 -4.86864 9.20766
R_Toe0  -1.78853 -0.273131 -17.3235
595
root  -34.026 32.4658 -12.9545 -171.475 -3.40894 98.7202
Spine  2.43073 10.3384 -23.4263
Spine1  3.4741 -4.28969 10.6259
Neck  3.97569e-016 0 -2.38542e-015
Head  46.8394 -8.26961 31.5782
R_Clavicle  0.438147 -24.6524 1.48237
R_UpperArm  44.8663 -5.61535 39.7768
R_Forearm  4.39841 -47.3858 38.058
R_Hand  -0.945808 13.4854 -19.1685
L_Clavicle  -0.649629 25.0583 0.879241
L_UpperArm  -21.3807 4.99649 25.1152
L_Forearm  22.3732 46.4524 51.1902
L_Hand  -0.0444316 -1.75431 -1.48248
L_Thigh  -12.2607 -3.8794 6.26332
L_Calf  4.37077 -3.1598 23.3139
L_Foot  1.54052 2.1749 4.48796
L_Toe0  0.505156 0.018351 -6.13624
R_Thigh  12.3707 9.15527 -21.9782
R_Calf  1.9615 9.57529 31.6701
R_Foot  -2.61027 -4.14154 9.00924
R_Toe0  -1.78853 -0.273092 -17.3235
596
root  -34.1153 32.4647 -12.6308 -173.359 -2.74561 98.7847
Spine  2.56212 9.86956 -23.5889
Spine1  3.71999 -3.06161 10.391
Neck  3.97569e-016 0 -2.38542e-015
Head  47.839 -8.9182 32.1892
R_Clavicle  0.436545 -24.026 1.34941
R_UpperArm  44.8555 -5.69212 39.0618
R_Forearm  4.65858 -47.1031 37.513
R_Hand  -0.807883 12.9795 -18.3201
L_Clavicle  -0.615569 25.6015 1.3941
L_UpperArm  -21.0356 4.78173 25.1151
L_Forearm  22.2437 46.4428 50.5748
L_Hand  -0.0635926 -1.87471 -2.12597
L_Thigh  -13.1876 -4.09178 6.13507
L_Calf  5.09177 -3.19415 23.5822
L_Foot  1.12478 1.28984 3.74626
L_Toe0  0.505156 0.0184653 -6.13624
R_Thigh  11.4532 10.1809 -21.932
R_Calf  1.04155 9.62636 31.8853
R_Foot  -2.68673 -4.27893 9.16377
R_Toe0  -1.78853 -0.273057 -17.3235
597
root  -34.1845 32.4607 -12.3062 -175.63 -2.11697 98.8462
Spine  2.84295 9.56304 -23.5963
Spine1  4.08786 -2.01446 10.0355
Neck  3.97569e-016 0 -2.38542e-015
Head  48.9721 -9.59248 32.7137
R_Clavicle  0.4306 -23.1993 1.31106
R_UpperArm  44.5755 -5.37171 37.6379
R_Forearm  4.32274 -47.0228 36.936
R_Hand  -0.744572 12.5068 -17.8771
L_Clavicle  -0.579109 25.9269 1.84865
L_UpperArm  -20.6162 4.69821 24.9649
L_Forearm  21.3633 46.4325 49.8918
L_Hand  -0.0824535 -1.70931 -2.57029
L_Thigh  -13.8863 -4.38566 5.94702
L_Calf  5.86969 -3.21082 23.7103
L_Foot  0.883181 0.776977 3.28615
L_Toe0  0.505156 0.0185991 -6.13624
R_Thigh  10.3668 11.1442 -22.0494
R_Calf  0.125648 9.72019 32.2534
R_Foot  -2.84019 -4.74694 9.03495
R_Toe0  -1.78853 -0.273027 -17.3235
598
root  -34.2356 32.4426 -11.979 -178.129 -1.56613 98.8442
Spine  3.18854 9.64099 -23.6063
Spine1  4.49018 -1.56559 9.81581
Neck  3.97569e-016 0 -2.38542e-015
Head  49.9533 -10.0968 32.9456
R_Clavicle  0.426365 -22.6999 1.34956
R_UpperArm  44.0828 -4.50997 35.7434
R_Forearm  3.87806 -47.0636 36.2861
R_Hand  -0.804204 12.0566 -18.1655
L_Clavicle  -0.566839 26.0203 1.99254
L_UpperArm  -20.3051 4.68995 24.6654
L_Forearm  20.6324 46.369 49.288
L_Hand  -0.104174 -1.40993 -2.95437
L_Thigh  -14.2311 -4.86496 5.83533
L_Calf  6.56537 -3.19628 23.586
L_Foot  0.703705 0.390955 2.93694
L_Toe0  0.505156 0.0187526 -6.13624
R_Thigh  9.20526 12.0167 -22.1738
R_Calf  -0.808484 9.78064 32.4961
R_Foot  -3.04471 -5.29077 9.04486
R_Toe0  -1.78853 -0.273 -17.3235
599
root  -34.2671 32.4079 -11.6403 179.304 -1.11618 98.764
Spine  3.56617 9.87537 -23.6256
Spine1  4.90114 -1.47727 9.66887
Neck  3.97569e-016 0 -2.38542e-015
Head  50.989 -10.4682 32.9339
R_Clavicle  0.425344 -22.5457 1.31625
R_UpperArm  43.509 -3.40735 33.7125
R_Forearm  3.73415 -46.9113 35.3215
R_Hand  -0.87395 11.6632 -18.539
L_Clavicle  -0.578299 26.0044 1.86851
L_UpperArm  -20.0168 4.65492 24.2853
L_Forearm  20.7832 46.3329 48.7344
L_Hand  -0.125657 -1.36181 -3.48786
L_Thigh  -14.3584 -5.51986 5.80139
L_Calf  7.11011 -3.15528 23.2526
L_Foot  0.430765 -0.1943 2.38182
L_Toe0  0.505156 0.0189264 -6.13623
R_Thigh  7.89496 12.8137 -22.2168
R_Calf  -1.85185 9.75268 32.3986
R_Foot  -3.18269 -5.50359 9.38169
R_Toe0  -1.78853 -0.272976 -17.3235
600
root  -34.2743 32.3683 -11.2923 176.66 -0.744781 98.7077
Spine  3.99083 10.2171 -23.4665
Spine1  5.3179 -1.62329 9.41479
Neck  3.97569e-016 0 -2.38542e-015
Head  52.3122 -10.7951 32.8234
R_Clavicle  0.424845 -22.4395 1.16083
R_UpperArm  42.7226 -2.32589 31.7111
R_Forearm  3.99244 -46.4774 33.8585
R_Hand  -0.87953 11.2557 -18.5191
L_Clavicle  -0.593024 25.7681 1.67387
L_UpperArm  -19.6034 4.66545 23.764
L_Forearm  21.4956 46.394 48.1941
L_Hand  -0.136305 -1.72842 -4.16233
L_Thigh  -14.5354 -6.25465 5.62536
L_Calf  7.81514 -3.11641 22.9434
L_Foot  0.0848884 -1.00348 1.72866
L_Toe0  0.505156 0.0191209 -6.13623
R_Thigh  6.49398 13.5116 -22.3499
R_Calf  -3.03987 9.68594 32.1505
R_Foot  -3.22947 -5.44383 9.77734
R_Toe0  -1.78853 -0.272954 -17.3235
601
root  -34.2492 32.3253 -10.9443 173.887 -0.414215 98.7876
Spine  4.47094 10.8677 -22.9185
Spine1  5.72131 -2.20188 8.95011
Neck  3.97569e-016 0 -2.38542e-015
Head  53.7396 -11.0598 32.6585
R_Clavicle  0.423241 -22.2632 0.976464
R_UpperArm  41.6125 -1.25116 29.7243
R_Forearm  4.30588 -45.9077 32.0566
R_Hand  -0.869061 10.6943 -18.3699
L_Clavicle  -0.599556 25.2597 1.51082
L_UpperArm  -19.109 4.7562 23.051
L_Forearm  22.182 46.507 47.7354
L_Hand  -0.135501 -2.20926 -4.7797
L_Thigh  -14.8456 -7.00214 5.1775
L_Calf  9.21195 -3.08163 22.6703
L_Foot  -0.335149 -2.25442 1.2473
L_Toe0  0.505156 0.0193365 -6.13623
R_Thigh  5.19418 14.0579 -22.7486
R_Calf  -4.41337 9.61159 31.8957
R_Foot  -3.27623 -5.39627 10.1475
R_Toe0  -1.78853 -0.272935 -17.3235
602
root  -34.1934 32.2655 -10.5852 171.093 -0.0794983 98.9052
Spine  5.00297 11.8127 -22.1035
Spine1  6.12518 -3.14329 8.29429
Neck  3.97569e-016 0 -2.38542e-015
Head  54.9736 -11.175 32.4853
R_Clavicle  0.420475 -22.0381 0.836318
R_UpperArm  40.4738 -0.243284 27.7478
R_Forearm  4.17608 -45.213 30.2626
R_Hand  -0.893988 9.98018 -18.4277
L_Clavicle  -0.604274 24.7281 1.34545
L_UpperArm  -18.6878 4.73028 22.2485
L_Forearm  22.9744 46.6454 47.4532
L_Hand  -0.139623 -2.39596 -5.22135
L_Thigh  -15.1768 -7.70394 4.63245
L_Calf  11.5113 -3.02702 22.24
L_Foot  -0.920996 -4.30893 0.968201
L_Toe0  0.505156 0.0195735 -6.13623
R_Thigh  3.85857 14.5739 -23.2645
R_Calf  -5.94631 9.49314 31.4749
R_Foot  -3.34947 -5.3004 10.7793
R_Toe0  -1.78853 -0.272918 -17.3235
603
root  -34.1135 32.1957 -10.1833 168.559 0.199036 98.757
Spine  5.51294 12.5579 -21.6924
Spine1  6.5632 -3.83939 7.69274
Neck  3.97569e-016 0 -2.38542e-015
Head  56.0025 -11.1204 32.4581
R_Clavicle  0.416356 -21.7423 0.730445
R_UpperArm  39.6429 0.564092 25.8796
R_Forearm  3.66121 -44.2876 28.6444
R_Hand  -0.932758 9.34343 -18.6022
L_Clavicle  -0.61519 24.3799 1.12663
L_UpperArm  -18.3254 4.4245 21.508
L_Forearm  24.0621 46.8269 47.3128
L_Hand  -0.158257 -2.21538 -5.54894
L_Thigh  -15.4494 -8.41258 4.2127
L_Calf  14.2095 -2.9706 21.7979
L_Foot  -1.5374 -6.64716 0.953585
L_Toe0  0.505156 0.0198326 -6.13623
R_Thigh  2.35052 15.2054 -23.591
R_Calf  -7.49734 9.34719 30.9561
R_Foot  -3.32902 -4.87904 11.6195
R_Toe0  -1.78853 -0.272901 -17.3235
604
root  -34.005 32.1392 -9.72062 166.482 0.317383 98.2179
Spine  5.85881 12.7416 -22.1656
Spine1  6.97698 -3.91936 7.3793
Neck  3.97569e-016 0 -2.38542e-015
Head  56.8647 -10.959 32.6446
R_Clavicle  0.411941 -21.4543 0.65114
R_UpperArm  38.9506 1.32323 24.2236
R_Forearm  3.48931 -43.2106 27.105
R_Hand  -0.961046 9.01047 -18.7566
L_Clavicle  -0.627547 24.1216 0.894882
L_UpperArm  -17.9372 3.95839 20.9119
L_Forearm  24.8872 46.9758 47.1377
L_Hand  -0.182922 -1.95725 -5.89944
L_Thigh  -15.7675 -9.23135 3.93058
L_Calf  16.4089 -2.9414 21.5722
L_Foot  -1.83506 -8.04115 1.49774
L_Toe0  0.505156 0.020114 -6.13622
R_Thigh  1.0035 15.886 -23.7366
R_Calf  -8.81225 9.31025 30.8252
R_Foot  -3.16309 -4.2446 12.1393
R_Toe0  -1.78853 -0.272886 -17.3235
605
root  -33.8606 32.0806 -9.21225 164.649 0.337402 97.5601
Spine  6.06073 12.7665 -22.8648
Spine1  7.28006 -3.95608 7.06236
Neck  3.97569e-016 0 -2.38542e-015
Head  57.3905 -10.704 32.869
R_Clavicle  0.410439 -21.3693 0.609919
R_UpperArm  37.8427 2.22428 22.824
R_Forearm  4.35318 -42.0912 25.5294
R_Hand  -0.997248 8.91357 -19.0065
L_Clavicle  -0.629855 23.7428 0.745772
L_UpperArm  -17.6076 3.58575 20.479
L_Forearm  24.8159 46.939 46.8214
L_Hand  -0.196624 -1.92558 -6.26747
L_Thigh  -16.4287 -10.0092 3.66672
L_Calf  17.6183 -2.88244 21.1138
L_Foot  -1.71844 -8.19478 2.72942
L_Toe0  0.505156 0.0204182 -6.13622
R_Thigh  0.0420746 16.5099 -24.0083
R_Calf  -9.81866 9.40428 31.1184
R_Foot  -3.04939 -3.87716 12.353
R_Toe0  -1.78853 -0.272871 -17.3235
606
root  -33.6824 31.9726 -8.67579 162.7 0.294983 96.9593
Spine  6.29617 13.0735 -23.0642
Spine1  7.5303 -4.60201 6.28982
Neck  3.97569e-016 0 -2.38542e-015
Head  57.5106 -10.3286 32.9739
R_Clavicle  0.411435 -21.4702 0.545724
R_UpperArm  35.8249 3.00415 21.734
R_Forearm  6.44333 -40.7202 24.0016
R_Hand  -1.05851 8.7673 -19.4374
L_Clavicle  -0.61903 23.1228 0.690324
L_UpperArm  -17.535 3.46817 20.2135
L_Forearm  24.1237 46.6989 46.4905
L_Hand  -0.194688 -2.0631 -6.46455
L_Thigh  -17.6107 -10.553 3.50244
L_Calf  17.8573 -2.69223 19.6704
L_Foot  -1.25452 -7.39171 4.45666
L_Toe0  0.505156 0.0207456 -6.13622
R_Thigh  -0.892479 17.1014 -24.365
R_Calf  -10.9325 9.41335 31.133
R_Foot  -3.11943 -3.81574 12.9387
R_Toe0  -1.78853 -0.272855 -17.3235
607
root  -33.4829 31.8248 -8.10616 160.453 0.056366 96.2485
Spine  6.6892 13.4997 -23.0448
Spine1  7.89494 -5.70608 5.06883
Neck  3.97569e-016 0 -2.38542e-015
Head  57.3702 -9.93649 33.1145
R_Clavicle  0.410483 -21.4806 0.375217
R_UpperArm  33.2307 3.32703 20.9581
R_Forearm  9.00023 -39.0849 22.7496
R_Hand  -1.13655 8.50949 -19.9949
L_Clavicle  -0.60409 22.3957 0.650649
L_UpperArm  -17.7039 3.51194 20.1934
L_Forearm  23.565 46.4174 46.299
L_Hand  -0.194751 -2.0312 -6.40266
L_Thigh  -19.1322 -10.9331 3.62334
L_Calf  16.9259 -2.38412 17.4491
L_Foot  -0.0659201 -4.5572 6.57044
L_Toe0  0.505156 0.0210967 -6.13621
R_Thigh  -2.21589 17.6407 -24.5205
R_Calf  -12.5624 9.26333 30.6742
R_Foot  -3.16139 -3.58217 13.7989
R_Toe0  -1.78853 -0.272839 -17.3235
